<svg xmlns="http://www.w3.org/2000/svg" width="1280" height="720" viewBox="0 0 1280 720">
    <defs>
        <linearGradient id="bg" x1="0" y1="0" x2="1" y2="1">
            <stop offset="0%" stop-color="#0B1020"/>
            <stop offset="100%" stop-color="#111827"/>
        </linearGradient>
        <filter id="glow"><feGaussianBlur stdDeviation="3" result="blur"/><feMerge><feMergeNode in="blur"/><feMergeNode in="SourceGraphic"/></feMerge></filter>
        <marker id="arrow" markerWidth="10" markerHeight="10" refX="8" refY="3" orient="auto" markerUnits="strokeWidth"><path d="M0,0 L0,6 L9,3 z" fill="#38BDF8"/></marker>
    </defs>
    <rect width="100%" height="100%" fill="url(#bg)"/>
    <text x="640" y="60" fill="#F9FAFB" font-family="Inter, Arial, sans-serif" font-size="32" font-weight="600" text-anchor="middle">Пиксельная координатная сетка экрана</text><rect x="180" y="120" width="920" height="520" rx="10" fill="#020617" stroke="#38BDF8" stroke-width="3"/><line x1="295.0" y1="120" x2="295.0" y2="640" stroke="#1E293B" stroke-width="1"/><line x1="410.0" y1="120" x2="410.0" y2="640" stroke="#1E293B" stroke-width="1"/><line x1="525.0" y1="120" x2="525.0" y2="640" stroke="#1E293B" stroke-width="1"/><line x1="640.0" y1="120" x2="640.0" y2="640" stroke="#1E293B" stroke-width="1"/><line x1="755.0" y1="120" x2="755.0" y2="640" stroke="#1E293B" stroke-width="1"/><line x1="870.0" y1="120" x2="870.0" y2="640" stroke="#1E293B" stroke-width="1"/><line x1="985.0" y1="120" x2="985.0" y2="640" stroke="#1E293B" stroke-width="1"/><line x1="180" y1="224.0" x2="1100" y2="224.0" stroke="#1E293B" stroke-width="1"/><line x1="180" y1="328.0" x2="1100" y2="328.0" stroke="#1E293B" stroke-width="1"/><line x1="180" y1="432.0" x2="1100" y2="432.0" stroke="#1E293B" stroke-width="1"/><line x1="180" y1="536.0" x2="1100" y2="536.0" stroke="#1E293B" stroke-width="1"/><circle cx="640" cy="380" r="10" fill="#22D3EE" filter="url(#glow)"/><text x="640" y="410" fill="#E0F2FE" font-family="Inter, Arial, sans-serif" font-size="20" font-weight="600" text-anchor="middle">center (960, 540)</text><text x="180" y="105" fill="#FDE68A" font-family="Inter, Arial, sans-serif" font-size="18" font-weight="600" text-anchor="middle">(0, 0)</text><text x="1100" y="105" fill="#FDE68A" font-family="Inter, Arial, sans-serif" font-size="18" font-weight="600" text-anchor="middle">(1920, 0)</text><text x="180" y="675" fill="#FDE68A" font-family="Inter, Arial, sans-serif" font-size="18" font-weight="600" text-anchor="middle">(0, 1080)</text><text x="1100" y="675" fill="#FDE68A" font-family="Inter, Arial, sans-serif" font-size="18" font-weight="600" text-anchor="middle">(1920, 1080)</text><line x1="220" y1="700" x2="420" y2="700" stroke="#38BDF8" stroke-width="3" marker-end="url(#arrow)"/><text x="320" y="730" fill="#38BDF8" font-family="Inter, Arial, sans-serif" font-size="18" font-weight="600" text-anchor="middle">x растёт вправо</text><line x1="1120" y1="160" x2="1120" y2="360" stroke="#38BDF8" stroke-width="3" marker-end="url(#arrow)"/><text x="1180" y="265" fill="#38BDF8" font-family="Inter, Arial, sans-serif" font-size="18" font-weight="600" text-anchor="middle">y растёт вниз</text>
</svg>
